<?xml version="1.0" encoding="utf-8"?>
<!-- Generator: Adobe Illustrator 18.0.0, SVG Export Plug-In . SVG Version: 6.00 Build 0)  -->
<!DOCTYPE svg PUBLIC "-//W3C//DTD SVG 1.1//EN" "http://www.w3.org/Graphics/SVG/1.1/DTD/svg11.dtd">
<svg version="1.1" id="Layer_1" xmlns="http://www.w3.org/2000/svg" xmlns:xlink="http://www.w3.org/1999/xlink" x="0px" y="0px"
	 viewBox="0 0 864 864" enable-background="new 0 0 864 864" xml:space="preserve">
	<path fill="#1C491A" d="M308.6,307.8c-2.3,1-4.1,3.4-4.8,5.7c-1.1,3.4,0.4,6.6,3.5,8.2c1.8,1,4.3,1,5.5,2.8c0.6,0.8,0.3,2.3,0.5,3.2
		c0.4,2.8,0.7,5.5,1,8.2c0.3,1.8,0.5,4.4,0.5,7.6c0,1.5,0,3.3-0.1,5.1c-0.1,0.9-0.1,1.8-0.2,2.8c-0.1,0.9-0.3,1.8-0.4,2.9
		c-0.7,3.8-1.7,7.9-3.5,11.7c-0.4,1-0.8,1.9-1.3,2.9l-0.7,1.3c-0.2,0.5-0.5,0.9-0.7,1.3c-1,1.6-2.3,3.3-3.6,4.7
		c-2.7,3-5.4,5.4-7.8,7.7c-0.2,0.1-0.3,0.3-0.5,0.4c0.7-1,1.5-2.4,2.6-4.2c2.1-3.7,4.4-8.8,5.3-14.6c0.5-2.8,0.6-5.7,0.5-8.4
		c-0.2-2.7-0.5-5-0.9-7.1s-0.8-3.7-1.1-4.8c-0.1-0.6-0.3-1-0.4-1.3s-0.1-0.5-0.1-0.5c1.3-1.1,2.4-2.8,2.7-4.8c0.3-1.9,0-4.3-1-6.5
		c-1.3-2.7-3.5-4.6-5.7-5.3c-2.3-0.8-4.6-0.4-6.4,0.9c-1.8,1.3-2.9,3.4-3.3,5.4c-0.4,2.1-0.2,4.3,0.8,6.3c0.8,1.6,1.9,2.9,3.4,3.8
		c1.4,0.9,3.1,1.5,4.8,1.6c0,0,0.8,2.4,1.5,6.2c0.3,1.8,0.7,4.1,0.8,6.4s0,4.7-0.4,7.2c-0.7,4.2-2.4,8.2-4,11.4
		c-0.1-2.3-0.3-4.6-0.8-7.1c-0.8-4.3-2.3-8.7-3.8-12.9c-3-8.3-6.2-16.6-8.5-22.8c-1.1-2.9-2.1-5.8-3.5-8.6c-1-1.9-1.8-4.5-2.7-7
		c-0.4-1.3,0.8-2.2,1.5-3.3c1.5-2.6,1.1-5.2-0.3-7.6c-3-5-7.1-7.7-11.2-5.7c-5.7,2.9-6.4,13-0.8,16.4c0.5,0.3,1.5,0.2,2.2,0.5
		c6.2,2.8,7.7,11.6,10,17.3c2.5,6.2,5.5,14.4,8.5,22.7c1.4,4.1,2.8,8.2,3.5,12.1c0.7,3.9,0.9,7.6,0.5,10.7c-0.4,3.1-1.2,5.5-1.9,7.2
		c-0.3,0.6-0.5,1-0.7,1.4c-0.5-0.7-1.2-2.1-2.1-3.8c-1.6-3.9-3.9-9-6.2-14.3c-4.5-10.4-8.9-20.7-8.9-20.7c2.5-2.6,3.2-7,1.3-11.1
		c-2.3-5.1-7.4-7.8-11.5-6c-4.1,1.8-5.7,7.5-3.5,12.6c1.7,4.1,5.4,6.6,8.9,6.6c0,0,4.5,10.4,8.9,20.7c2.3,5.1,4.5,10.4,6.2,14.3
		c0.2,0.4,0.3,0.7,0.5,1.1c-0.7-0.6-1.5-1.5-2.6-2.8c-3.3-4.1-7.6-9.5-11.9-15c-4.3-5.4-8.7-10.9-11.9-15c-1.4-1.8-2.9-3.9-4.6-5.5
		c-1.5-1.4-3.4-3-3.3-5.3c0-0.6,0.2-1.2,0.3-1.8c1-4.9-1.6-8.3-5.7-10.8c-2.9-1.6-7.1-2.8-9.9-0.3c-3.4,3.1-2.5,9.6,1.9,14.9
		c1.6,1.9,4.5,2.7,7,2.8c0.8,0,1.6,0,2.5,0.2c1.7,0.6,2.7,2.8,3.8,4.2c1.3,1.6,2.7,3.3,4,5c3.3,4.1,7.6,9.5,11.9,15
		c4.3,5.4,8.6,10.9,11.9,15c1.6,2.2,3.5,3.9,5,4.7c0.3,0.2,0.5,0.3,0.8,0.4c-0.4,0-0.9,0.1-1.4,0.1c-1.4,0-3.3-0.3-5.2-1
		c-0.9-0.3-1.9-0.8-3-1.2c-1-0.5-2.1-0.9-3.1-1.5c-2.1-1-3.9-2.5-5.6-3.7c-1.6-1.3-3.2-2.7-4.4-3.9c-1.2-1.2-2.2-2.4-2.8-3.1
		c-0.6-0.8-0.9-1.2-0.9-1.2c0.9-1.4,1.5-3.1,1.6-4.6c0.2-1.6-0.1-3.2-0.8-4.5c-0.5-0.9-1-1.6-1.8-2.3c-0.7-0.6-1.5-1.2-2.5-1.6
		c-1.8-0.8-4.1-1.1-6.3-0.5c-2.2,0.6-3.8,2.2-4.7,4.4c-0.4,1.1-0.5,2.4-0.5,3.7c0.1,1.2,0.4,2.7,1.1,3.9c0.5,1,1.1,1.9,1.9,2.7
		c0.7,0.7,1.5,1.3,2.5,1.7c0.9,0.4,1.7,0.6,2.7,0.7s1.7,0,2.6-0.3c0,0,0.4,0.5,1.1,1.4c0.7,0.8,1.7,2.1,3.1,3.5
		c1.3,1.3,3,2.9,4.9,4.4c1.9,1.4,4,2.9,6.3,4.1c1.1,0.6,2.3,1.1,3.4,1.7c1.1,0.5,2.3,1,3.5,1.4c0.4,0.1,0.9,0.3,1.3,0.4
		c-0.5,0.1-1,0.2-1.6,0.2c-2.6,0.2-5.4,0-8.3-0.4c-5.7-1-11.6-2.9-15.7-4.5c-3-1.2-6-2.6-8.8-4.2c-0.7-0.4-1.4-0.8-2.2-1.3
		c-0.6-0.4-0.6-0.7-0.5-1.5c0.1-1.2,0.3-2.6-0.1-3.8c-1-3.2-3.8-5.3-7.2-5.2c-2.5,0-4.5,1.4-6.1,3.3c-1.8,2.3-2.5,5.4-1.4,8.2
		c0.6,1.7,1.9,3.2,3.5,4.1c1.4,0.8,3,1.5,4.6,1.3c1-0.1,1.9-0.8,3-1c1.3-0.3,2.7,0.3,3.9,0.8c4.3,1.5,8.3,3.8,12.6,5.3
		c4.3,1.5,8.8,2.9,13.4,3.6c0.4,0.1,0.7,0.1,1.1,0.2c-1.2,0.2-2.6,0.3-3.9,0.3c-0.7,0-1.5,0-2.5,0c-0.8,0-1.7-0.1-2.7-0.1
		c-3.6-0.3-7.4-0.9-11.1-1.9c-7.5-1.9-14.7-5.1-19.8-7.9c-2.6-1.3-5.2-2.5-7.7-3.9c-1.2-0.7-2.5-1.4-3.6-2.4c-1.3-1-0.8-3.6-0.9-5
		c-0.1-1.9-1.1-3.8-2.7-5c-6.2-4.7-14.5,3.2-12.7,9.7c1.1,4.2,6.8,8,10.9,5.2c0.9-0.6,1.4-1.2,2.6-0.8c0.7,0.3,1.5,0.7,2.3,1.1
		c1.4,0.8,2.9,1.6,4.2,2.5c1.7,1,3.6,2.1,5.4,3c5.4,2.9,12.9,6.3,20.9,8.3c4,1,8.1,1.7,12,2.1c0.9,0.1,1.9,0.1,2.9,0.2
		c0.9,0,1.8,0.1,2.8,0c1.8-0.1,3.5-0.2,5-0.4c3.1-0.5,5.6-1.1,7.4-1.8c0.8-0.3,1.5-0.6,1.9-0.8c-3.8,3.2-9.5,6.5-16,7.9
		c-6.7,1.7-13.8,1.6-18.8,0.5c-2.6-0.4-4.5-1.1-6-1.7c-1.3-0.5-2.2-0.9-2.2-0.9c-0.7-0.4-0.2-3.8-0.4-4.6c-1.5-5.5-10.1-8.6-14.3-4.5
		c-2.4,2.3-4.6,6.2-3.3,9.4c2.8,6.9,10.2,8.5,15.9,4.3c0,0,0.8,0.4,2.5,1.1c1.6,0.6,3.9,1.4,6.8,1.9c5.7,1.2,13.5,1.3,21-0.6
		c0.9-0.3,1.8-0.4,2.8-0.7c0.9-0.3,1.8-0.6,2.7-0.9c1.7-0.7,3.5-1.4,5-2.3c1.6-0.8,3.1-1.7,4.5-2.7c0.7-0.4,1.3-1,1.9-1.4
		c0.6-0.5,1.2-0.9,1.7-1.4c2.2-1.9,3.7-3.8,4.7-5.1c0.9-1.4,1.5-2.2,1.5-2.2c0.5-0.7,0.7-1.5,0.8-2.3c0.2,0.2,0.4,0.4,0.6,0.6
		c1.1,1.1,2.9,2.7,5,4.7c4.3,4.1,10.4,10.1,17.3,17.5c7,7.5,14.9,16.3,22.7,26.4c3.9,5,7.8,10.4,11.6,15.8c3.8,5.5,7.4,11.2,10.9,17
		c3.4,5.8,6.7,11.8,9.6,17.8c2.9,6,5.6,11.9,8,17.9c4.8,11.7,8.2,23.1,10.6,32.9s3.5,18.2,4.2,24c0.3,3,0.5,5.2,0.6,6.8
		c0.1,1.5,0.1,2.5,0.1,2.5c0.1,1.8,1.7,3.3,3.5,3.2c1.8-0.1,3.3-1.7,3.1-3.6c0,0-0.1-0.8-0.1-2.5c-0.1-1.6-0.4-4-0.7-7.1
		c-0.7-6.1-1.9-14.7-4.4-24.8c-2.5-10.2-5.8-21.9-10.8-33.9c-2.4-6.1-5.2-12.1-8.2-18.3c-3.1-6.2-6.4-12.2-9.9-18.2
		c-3.6-6-7.3-11.8-11.2-17.3c-3.9-5.5-7.8-11-11.8-16.1c-7.9-10.3-16-19.3-23.1-26.9c-7.1-7.6-13.2-13.5-17.5-17.8
		c-2.2-2.1-3.8-3.6-5-4.7c0.4-0.3,0.7-0.5,1.1-0.9c0,0,0.7-0.7,2.2-1.9c1.4-1.2,3.5-3.1,5.8-5.2c2.5-2.3,5.3-4.8,8.2-8.1
		c1.4-1.6,2.9-3.4,4.1-5.4c0.6-1,1.1-2.1,1.6-3.1l0.8-1.5c0.2-0.5,0.4-1,0.7-1.6c1.9-4.2,3.1-8.7,3.8-12.9c0.2-1,0.3-2.2,0.5-3.1
		c0.1-1,0.2-2.1,0.2-3c0.2-1.9,0.1-3.8,0.1-5.5c0-1.7-0.2-3.3-0.2-4.6c-0.1-1.3-0.3-2.6-0.4-3.6c-0.2-2.3-0.7-4.4-0.8-6.7
		c-0.1-1.4-0.7-2.9-0.9-4.3c-0.5-2.5,1.9-4.6,2.4-7.1C320.9,310.9,314.8,304.9,308.6,307.8z"
	/>
</svg>
