<?xml version="1.0" encoding="utf-8"?>
<!-- Generator: Adobe Illustrator 18.0.0, SVG Export Plug-In . SVG Version: 6.00 Build 0)  -->
<!DOCTYPE svg PUBLIC "-//W3C//DTD SVG 1.1//EN" "http://www.w3.org/Graphics/SVG/1.1/DTD/svg11.dtd">
<svg version="1.1" id="Layer_1" xmlns="http://www.w3.org/2000/svg" xmlns:xlink="http://www.w3.org/1999/xlink" x="0px" y="0px"
	 viewBox="0 0 864 864" enable-background="new 0 0 864 864" xml:space="preserve">
	<path fill="#47201A" d="M186,179.4c1.2,0.8,3.1,0.7,4.8,0c0.8-0.4,1.8-0.8,2.8-1.5c0.4-0.3,0.9-0.7,1.3-1c0.4-0.4,0.9-0.8,1.3-1.2
		c2.7-2.9,4.1-6.1,3.7-8.6c0,0,0.1-0.1,0.4-0.3c0.2-0.2,0.6-0.5,1-0.8c0.5-0.3,1-0.7,1.6-1.2c0.6-0.5,1.3-1,2.3-1.5
		c3.3-2.2,7.9-4.7,12.8-6.7c4.9-1.9,10.1-3.2,14-3.8c3.9-0.6,6.6-0.7,6.6-0.7c0.1,0,0.3,0,0.4,0c3.7,2.3,7.6,5,11.8,8.3
		c5,4,10.3,8.8,15.7,14.1c-1,0-2.3,0.1-3.7,0.1c-3.7,0.2-8.5,0.7-13.3,1.7c-4.8,1-9.4,2.5-12.8,3.6c-3.4,1.1-5.6,1.9-5.6,1.9
		c-1.8-1.6-5.4-2.1-9-0.6c-4.5,1.7-7.1,5.5-5.8,8.3c1.2,2.8,5.7,3.5,10,1.8c3.5-1.3,5.8-3.9,6.2-6.3c0,0,2.3-0.8,5.6-1.9
		c3.4-1.1,7.9-2.5,12.5-3.4c4.6-0.9,9.2-1.4,12.8-1.6c3.5-0.2,5.8-0.1,5.8-0.1c0.3,0,0.6,0,0.9-0.1c2.8,2.8,5.5,5.6,8.3,8.7
		c9.4,10.2,19.2,21.4,28.9,32.8c0.5,0.6,1.1,1.3,1.6,1.9c-0.9,0.2-2.3,0.4-3.8,0.5c-3.3,0.1-7.8-0.6-12.1-2.1
		c-4.4-1.4-8.7-3.3-12-4.7s-5.4-2.4-5.4-2.4c-0.2-2.5-2.4-5.2-5.6-6.9c-4.1-2.1-8.5-1.6-10,1c-1.4,2.7,0.9,6.8,5.2,8.8
		c3.5,1.7,7.1,1.6,8.9,0.1c0,0,2.2,1,5.4,2.5c3.3,1.4,7.7,3.3,12.3,4.8c4.6,1.5,9.5,2.4,13.3,2.3c1.8-0.1,3.5-0.3,4.5-0.6
		c0.5-0.1,0.9-0.2,1.2-0.3c0.2-0.1,0.3-0.1,0.4-0.1c8.3,9.7,16.8,19.3,25.5,27.8c1.4,1.3,2.8,2.7,4.2,4c-3.2-0.7-7.4-1.4-11.7-1.6
		c-4.3-0.2-8.7,0.1-12,0.7c-1.6,0.3-3,0.6-3.9,0.9c-0.9,0.3-1.4,0.4-1.4,0.4c-0.8-0.8-2.2-1.4-3.7-1.5s-3.4,0.3-5,1.2
		c-2.2,1.1-3.6,3-4.2,4.6c-0.6,1.7-0.3,3.4,0.7,4.4c1,1.1,2.6,1.5,4.1,1.6c1.5,0,3.2-0.3,4.7-1.1c2.5-1.3,4.2-3.6,4.5-6
		c0,0,0.5-0.1,1.3-0.4c0.8-0.2,2.1-0.5,3.6-0.8c3-0.6,7.1-0.9,11.2-0.7c4.1,0.2,8.2,0.9,11.2,1.6c1.5,0.3,2.8,0.7,3.7,0.9
		c0.8,0.2,1.2,0.4,1.2,0.4c0.4,0.1,0.7,0.2,1,0.2c1.8,1.6,3.7,3.2,5.5,4.7c5,4.1,10.1,7.7,14.8,10.9c9.5,6.2,18.2,10.3,24.2,12.7
		c3.1,1.2,5.5,2.2,7.2,2.8c1.6,0.6,2.6,0.9,2.6,0.9c1.9,0.6,3.9,0.2,4.2-1c0.3-1.1-0.9-2.6-2.9-3.3c0,0-0.9-0.3-2.5-0.8
		c-1.6-0.6-4-1.4-7-2.7c-4.8-1.9-11.2-4.9-18.4-9.1c0.1-0.1,0.1-0.1,0.2-0.2c0,0,0.1-0.2,0.3-0.5c0.2-0.3,0.5-0.8,0.7-1.4
		c0.5-1.2,1-3.1,1.2-5.2c0.1-1,0.1-2.3,0.1-3.4c-0.1-1.1-0.1-2.4-0.2-3.6c-0.2-2.5-0.4-5.1-0.9-7.8c-0.8-5.2-2.2-10.5-3.5-14.3
		c-0.3-0.9-0.6-1.8-0.9-2.6c-0.3-0.7-0.5-1.4-0.7-1.9c-0.4-1.1-0.7-1.7-0.7-1.7c1.5-2.1,1.5-6.2-0.6-10.1c-1.3-2.4-3.2-4.2-4.9-5.1
		c-1.8-0.9-3.5-1-4.7-0.1c-1.2,0.9-1.7,2.6-1.6,4.4c0,0.9,0.2,1.9,0.5,3.1c0.3,1,0.7,2.2,1.3,3.2c1.8,3.4,4.5,5.7,7,6
		c0,0,0.3,0.6,0.6,1.6c0.2,0.5,0.4,1.1,0.7,1.8c0.2,0.7,0.5,1.5,0.8,2.5c1.2,3.6,2.6,8.6,3.3,13.6c0.4,2.6,0.6,5.1,0.8,7.5
		c0.1,1.2,0.1,2.4,0.2,3.5c0,1.1,0,2.1-0.1,3c-0.2,1.8-0.5,3.3-0.9,4.2c-0.4,0.9-0.7,1.3-0.7,1.3c-0.1,0.1-0.1,0.2-0.2,0.3
		c-0.7-0.5-1.5-0.9-2.3-1.4c-4.6-3.1-9.4-6.6-14.4-10.6c-4.9-4-9.9-8.5-14.8-13.4c-3.5-3.5-7.1-7.2-10.6-11c-0.1-0.5-0.2-1-0.4-1.5
		c0,0-0.3-0.7-0.7-1.9c-0.4-1.2-1-3.1-1.6-5.2s-1.1-4.7-1.4-7.5c-0.3-2.8-0.3-5.7-0.2-8.7c0.2-3,0.6-6,1.2-8.7s1.3-5.3,2.1-7.5
		c0.7-2.2,1.4-4,1.8-5.2c0.5-1.2,0.8-1.9,0.8-1.9c2.6-0.6,5.6-3.7,7.7-8c2.7-5.4,2.8-10.9,0.1-12.2c-2.7-1.3-7.3,2.1-10.1,7.7
		c-2.3,4.5-2.5,9.1-0.9,11.3c0,0-0.3,0.7-0.8,2.1c-0.5,1.3-1.2,3.2-1.9,5.4c-1.5,4.5-3.1,10.7-3.5,17c-0.1,3.2-0.1,6.4,0.2,9.3
		c0.3,3,0.9,5.7,1.5,8c0.1,0.5,0.3,1,0.4,1.5c-4.4-4.9-8.8-10.1-13.1-15.2c-5.7-6.7-11.5-13.4-17.2-19.9c0.6-0.5,1.2-1.4,1.4-2.7
		c0,0,0-0.2,0.1-0.6c0.1-0.4,0.1-0.9,0.2-1.6c0.1-1.4,0.2-3.4,0-5.7c-0.2-2.4-0.6-5-1.1-7.7c-0.5-2.8-1-5.6-1.6-8.6
		c-1.1-5.8-2.6-11.7-3.9-16c-0.6-2.2-1.3-3.9-1.7-5.2c-0.5-1.2-0.7-1.9-0.7-1.9c1.4-2.2,1.3-6.9-1.3-11.3c-0.8-1.4-1.8-2.6-2.8-3.6
		c-1-0.9-2.2-1.7-3.2-2.3c-2.2-0.9-3.9-0.9-4.9,0.1c-1.1,1-1.3,2.9-0.9,4.8c0.1,1,0.5,2.2,0.9,3.2c0.4,1.1,1,2.3,1.6,3.4
		c2.2,3.7,5,6.4,7.5,6.9c0,0,0.3,0.7,0.7,1.8c0.4,1.2,1,2.9,1.6,5c1.3,4.2,2.7,10,3.8,15.7c0.6,2.9,1.1,5.8,1.6,8.5
		c0.5,2.8,0.9,5.2,1,7.4c0.2,2.2,0.1,3.9,0,5.1s-0.3,1.9-0.3,1.9c-0.1,0.3-0.1,0.6-0.1,0.9c-3.3-3.7-6.6-7.3-9.7-10.8
		c-8.7-9.4-17.4-17.9-25.7-24.7c0,0,0-0.1-0.1-0.1c0,0-1.3-2.1-3.4-5c-1-1.5-2.2-3.3-3.5-5.1c-1.2-1.8-2.6-3.8-3.7-5.8
		c-1.1-1.9-1.8-4-2.3-6.2c-0.4-2.1-0.6-4.1-0.7-5.8c-0.1-1.7-0.1-3.3-0.2-4.3c0-1,0-1.6,0-1.6c2.2-1.2,3.7-4.3,3.8-8
		c0.1-4.6-1.9-8.5-5-8.7c-3-0.2-5.8,3.6-6,8.6c-0.1,4,1.5,7.3,3.7,8.3c0,0,0,0.6,0,1.6c0,1,0.1,2.6,0.2,4.4c0.1,1.8,0.3,4,0.8,6.4
		c0.5,2.4,1.4,4.8,2.7,7c1.2,2.3,2.6,4.2,3.8,6.2c0.4,0.6,0.8,1.1,1.1,1.7c-2.3-1.5-4.4-3-6.5-4.2c-4-2.4-7.8-4.1-11-5.2
		c-3.3-1.1-6-1.6-7.8-1.8c-0.9-0.1-1.6-0.1-2.2-0.2c-0.5,0-0.7,0-0.7,0c-0.1,0-0.2,0-0.3,0c-0.4-0.2-10.4-0.1-19.1,0
		c-4.4,0.1-8.8,0.2-12.2,0.4s-5.6,0.5-5.6,0.5c-1.3-2.1-4.8-3.2-8.6-2.1c-2.4,0.7-4.3,2.1-5.3,3.6c-1,1.5-1.2,3.2-0.4,4.5
		c0.7,1.3,2.2,2.2,3.7,2.6c1.5,0.4,3.4,0.4,5.1-0.1c2.9-0.8,5.3-2.8,6.1-5c0,0,2.2-0.3,5.3-0.5c3.3-0.2,7.6-0.3,12-0.4
		c6.5-0.1,16.4,0.2,16.8,0.4c0.6,0.3,1.5,0.6,2.5,0.5c0,0,0.2,0,0.6,0c0.4,0,1,0.1,1.8,0.1c1.6,0.2,4,0.6,6.9,1.6
		c1.6,0.6,3.4,1.3,5.3,2.3c-0.7,0.1-1.4,0.2-2.2,0.3c-4.1,0.6-9.5,1.9-14.7,4c-5.1,2.1-10.1,4.7-13.4,7c-0.9,0.5-1.6,1.1-2.4,1.6
		c-0.7,0.5-1.2,0.9-1.7,1.2c-0.9,0.7-1.4,1.2-1.4,1.2c-1.2-0.4-2.9-0.4-4.5,0.3c-0.8,0.3-1.7,0.8-2.7,1.3c-0.9,0.6-1.7,1.3-2.5,2.2
		c-1,1-1.7,2.2-2.4,3.3c-0.3,0.5-0.5,1.1-0.7,1.6c-0.2,0.5-0.3,1.1-0.4,1.6C184.2,176.9,184.7,178.6,186,179.4z"
	/>
</svg>
