<?xml version="1.0" encoding="utf-8"?>
<!-- Generator: Adobe Illustrator 18.0.0, SVG Export Plug-In . SVG Version: 6.00 Build 0)  -->
<!DOCTYPE svg PUBLIC "-//W3C//DTD SVG 1.1//EN" "http://www.w3.org/Graphics/SVG/1.1/DTD/svg11.dtd">
<svg version="1.1" id="Layer_1" xmlns="http://www.w3.org/2000/svg" xmlns:xlink="http://www.w3.org/1999/xlink" x="0px" y="0px"
	 viewBox="0 0 864 864" enable-background="new 0 0 864 864" xml:space="preserve">
	<path fill="#1C491A" d="M340.7,593.5c-12.7-9.1-26.1-15.1-40.2-21.2c-1.5-0.7-3.1-1.3-4.6-2.1c-16.1-7.1-32.6-14.1-49-20.7
		c-13.4-5.4-27.1-10.8-40.6-15.9l-15.8-6l9.7,13.9c6.8,9.6,9.9,21.6,12.9,33.1l21.9,83.6c6.3,24,12.8,48.8,24.2,71.6
		c12.9,26,30.9,45.6,51.7,56.6c13.9,7.3,28.8,11,43.4,14.6c4.2,1,8.3,2.1,12.5,3.1c2.4,0.6,4.7,1.1,7.1,1.7c0.3,0.1,0.6,0.1,0.9,0.2
		c6,1.4,11.9,2.9,17.9,4.3l8.8,2.2l-2.7-8.7c-1.1-3.9,0.4-10.6,1.6-15.9c0.4-1.7,0.8-3.3,1.1-4.8l0.4-2.2c1-5,2.1-10.3,3.4-15.2
		c1.2-4.4,2.8-8.6,4.4-13c2.6-6.9,5.2-14.1,6.5-22c0.1-0.5,0.2-1.1,0.2-1.6c3.7-27.6-7.1-49.6-17.4-67.9
		C382.8,632.5,363.2,609.6,340.7,593.5z M334.6,616.3c0.5-0.9,0.9-1.8,1.3-2.8c1.2-3.1,1.7-6.5,1.4-9.6c5,3.8,10,8,14.7,12.5
		C346.4,614.9,340.3,614.7,334.6,616.3z M378.9,700.5c4.8-0.3,9-2.8,11.7-6.9c1.5-2.5,0.8-5.6-1.6-7.2s-5.6-0.8-7.2,1.6
		c-1,1.6-2.7,1.9-3.5,2.1c-1.5,0.1-3.1-0.5-4.1-1.7c-0.5-0.6-1-1.5-0.5-3c0.7-2.3,3.2-4.5,5.6-5.1c3.5-0.9,7.7,0.4,10.5,3.2
		c3.6,3.7,5.7,10.3,3.1,14.9c-0.6,1.1-1.6,2.3-2.8,3.5l-8.7,10c-3.6,0.3-7.2,1.2-10.4,2.8c0.7-4.8,0.8-9.6,0.2-14.4
		c-0.1-0.4-0.1-0.9-0.2-1.3C373.3,700,376.1,700.6,378.9,700.5z M315.8,777.3c-10.5-5.5-19.2-13-26.5-21c3.4,0.2,6.8-0.6,10-2.6
		c2.2-1.2,3.9-2.9,5.2-4.8c2.3-1.9,3.7-4.2,4.9-6.2c0.8-1.4,1.6-2.6,2.5-3.5c2.5-2.5,7.3-4.6,11.8-4c3.3,0.4,5.8,2.2,7.7,5.4
		c1.5,2.6,1.8,5.5,0.9,8.2c-0.8,2.6-4.6,7.3-7.8,8.2c-0.9,0.2-1.7,0.2-2.9-0.7c-1.6-1.3-2.1-3.5-1.7-4.5c0.2-0.7,0.6-1.5,1-2.1
		c2.5,0.8,5.2-0.3,6.4-2.8c1.2-2.6,0.1-5.7-2.5-7c-2.7-1.2-5.5-1.2-8.1,0c-3.9,1.8-6.2,6.2-7,9.2c-1.3,5.2,0.8,11.3,5.2,15
		c3.6,3,8,4,12.4,2.8c1.8-0.5,3.7-1.4,5.3-2.7c-3.6,4.9-8.5,9.5-14.9,14C317.2,778.1,316.5,777.7,315.8,777.3z M278,645.9
		c5.5-2.5,14-3.8,22.5,4.5c3,2.9,4.6,6.9,4.3,10.6c-0.3,5.1-5.8,10.7-11.5,11.6c-2.4,0.4-4.7-0.5-5.7-2.1c-0.7-1.1-0.6-2.9-0.2-3.5
		h0.1c2.9,0.2,5.3-2.1,5.5-4.9c0.2-2.9-2.1-5.3-4.9-5.5c-4.1-0.2-7.7,1.6-9.7,5.2c-2.5,4.3-2.3,10.2,0.5,14.5c3.3,5,9.7,7.6,16.2,6.6
		c2.8-0.4,5.4-1.4,7.9-2.9c-1,2.3-1.6,4.6-1.8,7c-0.2,2.4,0.2,4.5,0.5,6.4c0.1,0.4,0.1,0.8,0.2,1.2c-2.8,0.2-5.4,0.6-8.1,1.3
		c-5.1,1.4-9.9,4.1-13.9,7.6c-3.6-1.1-19-11.1-19.7-27.8C259.6,663.6,267.3,650.7,278,645.9z M360.8,701.5c1.6,11.6-2.4,24-10.6,33.4
		c-1.9-11.9-9.1-23.5-19.6-31.3l0,0c3.7-0.3,6.9-1.9,9-4.6c0.4-0.4,0.7-0.9,1-1.4c3-4.7,3.2-11.1,2.3-15.7
		C352,686.7,359.4,691.5,360.8,701.5z M299.3,725.4c-5.2-2.3-11.8-0.2-14.9,4.6c-1.9,3.1-1.1,7.5,1.8,9.3c2.7,1.7,6.2,0.9,7.9-1.7
		c0.5-0.8,0.8-1.7,0.8-2.7c0.1,0,0.1,0,0.2,0.1c1.7,0.7,2.2,2.6,2.2,3.5c0.1,1.8-0.7,4.7-3.4,6.3c-2.7,1.5-5.2,1.4-8.1-0.3
		c-4.7-3-8.6-10-8.3-15c0.7-10.6,8.9-20.7,19.1-23.6c9-2.6,19.2-0.3,27.8,6.1c7.5,5.5,12.8,13.4,15,21.8c-4.4-6.3-10.2-8.3-14.3-8.8
		c-7.6-1-15,2.2-19.4,6C304.2,728.4,302,726.6,299.3,725.4z M317.2,678.6c2.7-1.8,5.8-2.2,9.3-1c2.7,0.8,4.7,2.6,5.7,4.9
		c0.8,1.8,1.3,7-0.3,9.6c-0.5,0.7-1,1.2-2.6,1.2c-2.1,0-3.6-1.1-4-1.8c-0.2-0.4-0.3-0.9-0.4-1.3c2.4-1,3.6-3.6,3-6.2
		c-0.7-2.8-3.6-4.4-6.4-3.7c-2.9,0.7-5,2.7-6.2,5.2c-1.6,3.8-0.6,8.2,0.8,10.9c-1.2-0.4-2.5-0.7-3.8-0.9c-0.1-1.3-0.3-2.7-0.5-3.7
		c-0.2-1.4-0.4-2.7-0.4-3.7C311.8,684.9,313.8,680.8,317.2,678.6z M320.1,666.5c-2.6,0.3-4.8,1.1-6.7,2.2c1-2.3,1.7-4.6,1.8-7.1
		c0.1-0.9,0.1-1.7,0-2.7C316.5,661.8,318.1,664.4,320.1,666.5z M272.9,711.6c-2.4,3.7-4.1,7.9-5.1,12.2c-4.2-8.6-7.7-17.5-10.8-26.6
		C261.8,704.1,268.1,709,272.9,711.6z M312.9,650.1c-1.2-2.7-3-5-5.1-7.2c-9.4-9.2-21.6-11.8-33.1-6.9c1-1.6,1.7-3.2,2.2-4.5
		c0.9-2.9,1.2-5.8,0.8-8.7c6.9,6.8,16.8,10.9,27.1,10.9c3.9,0,7.8-0.6,11.4-1.8C313.3,637.3,312.2,643.8,312.9,650.1z M233.2,610.2
		c2.7,0.1,5.3-0.2,7.9-0.7c-0.7,0.5-1.4,1.1-1.9,1.7c-1.7,1.7-3,3.7-4,5.4c0,0.1-0.1,0.1-0.1,0.2L233.2,610.2z M229.1,590.5
		c3.8,2.9,8.4,3.7,12.4,2.3c3.4-1.3,5.2-3.8,6.8-5.8c0.5-0.6,0.9-1.2,1.3-1.6c1.9-2.2,1.7-5.4-0.3-7.4c-2.2-1.9-5.4-1.7-7.4,0.3
		c-0.7,0.8-1.3,1.6-1.9,2.4c-0.8,1-1.7,2.3-2.3,2.5c-0.3,0.1-1.3-0.1-2.4-0.8c-1.9-1.5-3.2-4.2-3.1-7c0.1-2.8,1.5-5.7,3.9-7.9
		c0.9-0.8,1.7-1.4,2.6-1.7c5.5-2.3,15.6,1.1,18.3,6.2c3.8,7.2-2.5,18.5-8.4,23.1c-5,3.9-11.8,5.6-18.2,4.7l0,0l-2.7-10.2
		C228.1,589.8,228.6,590.2,229.1,590.5z M254.9,603.1c1.7-1.3,3.5-3,5.1-4.9c6.4-7.6,10.9-19.1,7.2-28.9c6,2.6,12,5.1,18,7.7
		c-6.7,1.9-12.4,7-15.2,14c-2.2,5.3-2.5,11.4-0.9,17.1c-3.3-2.5-6.7-3.4-9.4-3.8c-2.2-0.3-4.3-0.2-6.4,0.1
		C253.8,603.9,254.4,603.5,254.9,603.1z M312.3,607.3c2.6,1.3,5.7,0.3,7-2.4c0.6-1.2,0.7-2.6,0.4-3.7c1.1-1,2.6-1.6,4.1-1.7
		c1.1,0.6,1.9,1.5,2.6,2.8c0.9,2.1,0.9,4.9-0.1,7.3c-3.3,8.2-11.9,13.6-21.4,13.6c-9.7,0-19-4.9-23.5-12.5c-3-5-3.6-11.1-1.6-15.9
		c2.3-5.6,7.8-9,13.3-8.3c2.9,0.4,5.5,3,6.1,5.8c0.2,1.3,0,2.9-0.6,4.1c-1.9-1.5-4.7-2.1-7.1-1.3c-3.6,1.1-5.8,4.9-5.2,8.6
		c0.6,3.4,3.5,6.1,7.1,6.7c2.2,0.3,4.5-0.1,6.9-1.3c6.7-3.4,10.6-11.2,9.3-18.6c-0.2-1.2-0.5-2.4-1-3.5c2.7,1.2,5.3,2.6,8,3.9
		c-2.2,1-4,2.6-5.5,4.4l0,0c-1.3,1.6-2.7,4.4-2.1,7.3C309.2,604.7,310.4,606.4,312.3,607.3z M215.7,548.3c6.4,2.5,12.8,5,19.2,7.5
		c0,0,0,0-0.1,0c-2.1,0.8-4,2.1-5.7,3.8c-3.1,2.9-5.3,6.5-6.4,10.4C220.8,563,218.8,555.5,215.7,548.3z M245.1,655.6l-7-26.6
		c0.1-0.1,0.2-0.1,0.2-0.2c2.7-2.1,4.2-4.5,5.5-6.8c0.8-1.4,1.6-2.6,2.5-3.5c2.5-2.5,7.3-4.6,11.8-4c3.3,0.4,5.8,2.2,7.7,5.4
		c1.5,2.6,1.8,5.5,0.9,8.2c-0.8,2.6-4.6,7.3-7.8,8.2c-0.9,0.2-1.7,0.2-2.9-0.7c-1.6-1.3-2.1-3.5-1.7-4.5c0.2-0.7,0.6-1.5,1-2.1
		c2.5,0.8,5.2-0.3,6.4-2.8c1.2-2.6,0.1-5.7-2.5-7c-2.7-1.2-5.5-1.2-8.1,0c-3.9,1.8-6.2,6.2-7,9.2c-1.3,5.2,0.8,11.3,5.2,15
		c3.1,2.6,6.7,3.7,10.5,3.2c-6.2,7.3-10,16.7-10.3,26.3C248.1,667.4,246.6,661.4,245.1,655.6z M329,783.1c3.9-3.2,7.3-6.5,10.2-9.9
		c2.9-3.5,5.2-7.2,7.1-11c0.1,8.5,2.1,17.1,5.5,24.3c0.6,1.2,1.3,2.5,1.9,3.6C345.5,788.3,337.1,786,329,783.1z M395.3,763.1
		c-1.4,5.3-2.6,10.8-3.6,16l-0.4,2.2c-0.3,1.3-0.6,2.8-1,4.4c-0.9,4-2.1,8.6-2.3,13c-3.1-0.7-6.2-1.5-9.2-2.3
		c-0.2-0.1-0.4-0.1-0.7-0.2c-0.4-0.1-0.7-0.2-1-0.2c-0.2-0.1-0.4-0.1-0.7-0.2c-16-4.4-20.5-25.3-19.6-38c0.8-11.3,7.3-26.6,16.4-32.7
		c4.4-3,10.6-3.9,15.6-2.4c2.5,0.7,5.7,2.5,7.2,6.3c1.6,4,0.5,9.3-2.6,12.6c-3,3.3-8,4.6-11.2,3c-0.6-0.3-1.2-0.8-1.4-1.2
		c1.4,0.8,3.2,0.9,4.8,0.2c2.7-1.2,3.8-4.3,2.6-6.9c-1-2.3-3.1-3.9-5.6-4.5c-2.9-0.7-5.8,0-8.2,1.7c-3.5,2.7-5,7.6-3.8,11.9
		c0.9,3.4,3.4,6.3,6.9,8c6.8,3.5,15.9,1.8,22.1-3.6C398.1,754.4,396.5,758.7,395.3,763.1z M406.3,726.7c-0.2-0.5-0.3-1-0.5-1.5
		c-2.2-5.3-6.4-9.4-12-11.7l4.2-4.9c0.4-0.5,0.8-0.9,1.2-1.4c0.9-1.1,1.8-2.3,2.7-3.7c1-1.7,1.7-3.6,2.2-5.5
		C406.6,707.2,407.5,716.5,406.3,726.7z M393.6,673.1c-5-3.4-11.4-4.5-17-3.1c-5.8,1.5-11.1,6.4-12.9,12c-0.2,0.5-0.3,1-0.4,1.4
		c-5.2-5.6-12.2-9.2-18.8-12.6c-9.6-5-18-9.3-20.6-18.7c-2.4-8.5,0.5-17.8,7.3-23c9.2-7,23.2-3.3,31,4.2c5.1,4.9,7.2,13,4.8,19.2
		c-1.7,4.5-5.6,7.1-11.2,7.4c-1,0-2.1,0-3.1-0.2c-5.5-0.9-10.6-5.7-11.7-11.1c-0.4-2.2,0.1-4.5,1.6-6.4c0.7-1,2.5-2.7,5.1-2.7
		c0.4,0,0.6,0,0.8,0.1c0,0.1,0,0.2,0,0.4c-2.3-0.5-4.6,0.6-5.7,2.8c-1.3,2.6-0.3,5.7,2.3,7c3.5,1.7,7.4,1.3,10.3-1.3
		c3.4-3.1,4.6-8.5,2.9-12.8c-1.6-4.2-5.6-6.7-10.7-6.6c-5,0.1-9.9,2.5-13.1,6.7c-3.4,4.2-4.7,9.9-3.6,15c2.1,9.6,10.4,17.5,20.1,19.2
		c1.7,0.3,3.5,0.4,5.3,0.3c9.9-0.4,17.2-5.5,20.5-14.1c1-2.8,1.5-5.6,1.6-8.6c4,5.8,7.9,12.1,11.6,18.7
		C391.2,668.7,392.4,671,393.6,673.1z"
	/>
</svg>
