<?xml version="1.0" encoding="utf-8"?>
<!-- Generator: Adobe Illustrator 18.0.0, SVG Export Plug-In . SVG Version: 6.00 Build 0)  -->
<!DOCTYPE svg PUBLIC "-//W3C//DTD SVG 1.1//EN" "http://www.w3.org/Graphics/SVG/1.1/DTD/svg11.dtd">
<svg version="1.1" id="Layer_1" xmlns="http://www.w3.org/2000/svg" xmlns:xlink="http://www.w3.org/1999/xlink" x="0px" y="0px"
	 viewBox="0 0 864 864" enable-background="new 0 0 864 864" xml:space="preserve">
	<path fill="#1C491A" stroke="#6C696A" stroke-width="0.25" stroke-miterlimit="10" d="M677.7,525.4c0.5-1.8-1.2-4-4-4.8
		c0,0-1.2-0.4-3.5-1.1c-1.1-0.3-2.6-0.8-4.2-1.3c-1.6-0.5-3.6-1.1-5.6-1.9c-8.4-3.1-20.5-7.6-34.1-14.9c-8.9-4.6-18.6-10.4-28.3-17.1
		c0.4-0.2,0.8-0.5,1.2-0.8c2.3-1.6,4.8-4.5,6.9-7.9c2.2-3.4,3.9-7.3,5.2-10.8c1.3-3.5,2.3-6.7,2.9-8.9c2.2-9,1.5-20.6-2.5-21.7
		c-4-1-10,9-12.2,18.1c-1.1,4.6-2.1,12.6-3.3,19.2c-0.6,3.3-1.3,6.3-1.8,8.6c-0.1,0.5-0.2,0.9-0.3,1.4c-3.9-2.9-7.7-5.8-11.5-9
		c-2.6-2.2-5.1-4.3-7.6-6.7c2.2-1.3,5-5,7.8-9.4c3.8-6.2,7.1-14,8.3-18.5c1.2-4.4,1.5-9.6,1-13.8c-0.5-4.1-1.9-7.1-4-7.5
		c-2.1-0.3-4.3,1.9-6.5,5.3c-2.1,3.4-4,7.8-5.1,11.9c-1.1,4.1-2.6,11.8-3.7,18.7c-0.6,4-1.1,7.6-1,10.2c-7.2-6.8-14.2-14.1-20.6-22
		c1.7-1.5,3.9-4.2,6-7.1c3.7-5.1,7.5-11.2,9.2-14.7c0.9-1.7,1.6-3.7,2.3-5.6c0.6-2.1,1.1-4.2,1.2-6.3c0.1-2.1-0.1-4.1-0.7-5.4
		c-0.6-1.4-1.6-2.2-2.7-2.2s-2.1,0.4-3.1,1s-2.2,1.4-3.3,2.6c-1.2,1.1-2.5,2.5-3.7,4c-1.2,1.6-2.5,3.5-3.4,5.3
		c-1.8,3.7-4.3,10.8-5.5,17.2c-0.4,1.9-0.7,3.9-0.8,5.5c-1.6-2.2-3.4-4.3-4.9-6.6c-3.6-4.8-7-9.9-10.2-15
		c4.9-1.9,13.9-12.2,16.7-17.1c3.5-5.8,4.8-14.6,1.2-16.7c-3.6-2.2-10.7,3.2-14.2,9c-2.5,4.1-6.2,13.5-7.1,19.6
		c-3.7-6.2-7.2-12.5-10.3-18.8c0.6-0.3,1.2-0.7,1.8-1.3c1.4-1.2,3.2-3,4.9-4.9c3.6-3.9,7.5-8.9,9.2-12.2c1.7-3.3,2.7-7.6,2.4-11.1
		c-0.3-3.6-1.7-6.2-3.8-6.6c-2.1-0.4-4.3,1.1-6.4,3.2s-4.2,4.7-5.6,7.5c-0.7,1.4-1.6,3.5-2.6,6.1c-0.9,2.5-1.9,5.3-2.7,8.2
		c-0.3,1.3-0.6,2.8-0.7,4c-0.9-2.1-1.8-4.1-2.8-6.2c-0.9-2.3-2.1-4.3-2.9-6.6s-1.6-4.4-2.5-6.6c-0.3-0.9-0.7-1.7-1-2.7
		c1.9,0.4,6-1.5,10-4.5c4.6-3.4,9.2-8.3,11.3-11.3c2.1-3,3.5-6.9,3.9-10.3c0.4-3.4-0.3-6.2-2.2-7.1c-1.8-1-4.5,0-7.1,1.7
		c-2.6,1.7-5.2,4.4-7.1,7.1c-1.8,2.8-4.7,8.1-7,12.9c-1.4,3-2.6,5.8-3,8c-0.1-0.2-0.1-0.3-0.2-0.5c-0.8-2.2-1.5-4.2-2.3-6.4
		c-1.7-5.1-3.4-10.2-5.1-15c2.2-0.9,4.9-3,7.8-5.5c4.5-4.1,9.1-9.4,11.2-12.6c4.2-6.5,6-16.2,2.3-18.3c-3.6-2.1-11,4-15,10.2
		c-1.9,3.1-4.9,9.1-7.2,14.7c-0.6,1.5-1.2,3.1-1.6,4.5c-0.2-0.6-0.4-1.2-0.6-1.7c-3.6-9.6-7.3-18.1-10.7-25
		c4.7-1.9,12.4-10.3,14.9-14.4c3.1-5.1,3.9-13,0.4-15.2c-3.6-2.2-10.2,2.3-13.2,7.4c-1.8,3.1-4.6,10-5.5,15.4c0.2-1.2-3-5.7-3.7-7.2
		c-1.4-2.9-2.9-5.8-4.4-8.7c-3.1-5.4-5.8-9.1-11.5-12c-1.2-0.6-2.4-1-3.3-1.4c-3.8-1.3-8.3-1.8-11.9-1.2c-3.6,0.6-6.2,2.1-6.5,4.1
		s1.4,4.3,4.1,6.3c4.9,3.8,10.4,4.7,15.8,7.3c8.2,3.9,12.6,10.9,16.6,18.6c-1.7-0.8-4-1.5-6.4-2.4c-4.8-1.6-10.1-3.5-12.9-4.3
		c-2.9-0.8-6.4-1.1-9.3-0.9c-3,0.2-5.6,0.9-6.6,2.8c-1,1.8,0,4.5,2.3,7.1c2.3,2.6,6,4.7,9.6,5.7c1.8,0.5,4.4,0.9,7.4,1
		c2.9,0.1,6.1-0.1,9-0.6c4.2-0.7,7.7-2.3,9.2-3.8c3.3,6.6,6.8,14.7,10.3,23.9c-0.1,0-0.1,0-0.2-0.1c-0.5-0.2-1.1-0.4-1.6-0.6
		c-1.1-0.5-2.4-0.8-3.7-1.3c-5.1-1.8-10.8-4.6-14.1-5.8c-3.3-1.2-7.1-2.2-10.4-2.4c-3.3-0.2-6,0.1-7.3,1.6s-0.3,4.8,2.1,7.7
		c2.5,2.9,6.3,5.6,10.2,7.2c3.9,1.5,11.5,3.1,18.3,2.4c1.6-0.1,3.3-0.5,4.7-0.8c0.7-0.2,1.4-0.4,2.1-0.7c0.6-0.3,1-0.4,2.2-0.9
		c1.9,5.5,3.9,11.4,6,17.5c0.4,1.2,0.8,2.6,1.3,3.8c-1.5-0.7-3.3-1.5-5-2.3c-2.8-1.1-5.5-2.4-8-3.5c-2.5-1.2-4.6-2.3-6.1-3
		c-3-1.4-6.5-2.6-9.5-3.4c-3.1-0.7-5.8-1.2-7.5,0.2c-1.5,1.3-1.4,4.5,0.6,8.1c2.1,3.5,5.8,7,10,8.8c2.1,0.9,5,1.9,8.3,2.6
		c3.3,0.6,7,0.8,10.3,0.7c3.8-0.2,7.2-0.7,9.3-1.6c0.3,0.8,0.6,1.7,0.9,2.6c0.8,2.3,1.7,4.4,2.6,6.8c0.8,2.3,1.9,4.5,2.9,6.8
		c0.1,0.2,0.1,0.3,0.2,0.5c-1.1-0.4-2.4-0.8-3.7-1.2c-3.1-0.8-6.3-1.5-9-2.1c-2.8-0.5-5.1-0.9-6.8-1.2c-3.3-0.5-6.7-0.5-9.5-0.4
		c-2.9,0.1-5.6,0.3-7,1.9c-1.3,1.5-0.5,4.8,2.5,7.7c2.9,3,7.7,5.1,11.9,5.7c2.2,0.3,5.1,0.4,8.2,0.2c3.1-0.2,6.3-0.7,9.1-1.2
		c2.9-0.5,5.4-1,7.5-1.6c0.1,0,0.2-0.1,0.3-0.1c3.8,8.1,8.1,16.1,12.8,24.1c-1.7-0.5-3.8-0.9-5.8-1.4c-6-1.4-12.4-3.4-16-4.3
		c-3.6-0.9-7.7-1.4-11.3-1.4c-3.5,0-6.5,0.5-7.5,2.4c-0.9,1.8,0.4,4.7,3.4,7.5c2.9,2.7,7.4,5.1,11.7,6.3c2.2,0.5,5.3,1,8.8,1.1
		c3.5,0.1,7.3-0.1,10.7-0.8c4-0.7,7.5-2.1,9.6-3.4c3.3,5.2,6.8,10.5,10.6,15.5c0.7,0.9,1.4,1.9,2.2,2.9c-1.1-0.3-2.4-0.7-3.6-0.9
		c-1.8-0.3-3.7-0.6-5.6-0.7s-3.9,0-5.6,0.1c-3.5,0.3-6.4,0.8-8.2,1.1c-3.9,0.8-7.2,1.9-10,2.9c-1.4,0.5-2.7,0.8-3.9,1.3
		c-1.1,0.4-2.2,1-2.8,1.8c-0.5,0.9-0.5,2.1,0.3,3.5c0.4,0.6,1,1.3,1.7,2.1c0.7,0.6,1.7,1.3,2.8,1.8c2.2,1,4.8,1.7,7.4,1.9
		c2.6,0.2,5.1,0,7.3-0.5c2.3-0.4,5.1-1.3,7.9-2.3c1.4-0.5,2.8-0.9,4.2-1.3c1.4-0.4,2.9-0.8,4.4-1.1c3.7-0.9,7.4-1.3,9.6-2.2
		c5.7,7.1,11.8,13.8,18.2,20c-2.4-0.4-5.3-0.6-8.6-0.7c-6.9-0.3-14.7-0.2-18.9,0.2c-4.2,0.4-8.9,1.5-12.5,3.1
		c-3.6,1.5-6.2,3.5-6.2,5.5c0,2.1,2.8,3.9,6.7,5.1s8.9,1.7,13.4,1.3c4.5-0.4,12.5-2.2,19.2-4.6c5-1.8,9.3-4,10.9-5.8
		c3.9,3.7,7.9,7.3,12,10.7c3,2.5,6,4.8,8.9,7.1c-7.6,0.5-18.8,3.2-24,5.1c-3.9,1.5-7,3.3-9.2,4.5c-1.1,0.6-2.2,1.1-3.2,1.6
		s-2.2,0.8-2.8,1.6c-0.6,0.8-0.8,2.1,0.1,3.6c0.8,1.4,2.9,3.1,5.3,3.8c5,1.6,11.2,0.5,15.1-1c6.4-2.4,20.3-9.9,24.8-14.8
		c10.3,7.3,20.5,13.3,30,18.3c14,7.5,26.4,12.1,35,15.3c2.2,0.8,4.1,1.5,5.8,2.1c1.7,0.5,3.2,1,4.3,1.3c2.4,0.7,3.6,1.1,3.6,1.1
		C674.6,528.1,677.2,527.3,677.7,525.4z"
	/>
</svg>
